<svg width="40" height="40" viewBox="0 0 40 40" fill="none" xmlns="http://www.w3.org/2000/svg">
<rect width="40" height="40" rx="20" fill="#DADADA"/>
<path d="M21.5385 11.5385C21.5385 10.6875 20.851 10 20 10C19.149 10 18.4615 10.6875 18.4615 11.5385V18.4615H11.5385C10.6875 18.4615 10 19.149 10 20C10 20.851 10.6875 21.5385 11.5385 21.5385H18.4615V28.4615C18.4615 29.3125 19.149 30 20 30C20.851 30 21.5385 29.3125 21.5385 28.4615V21.5385H28.4615C29.3125 21.5385 30 20.851 30 20C30 19.149 29.3125 18.4615 28.4615 18.4615H21.5385V11.5385Z" fill="white"/>
</svg>
